<?xml version="1.0" encoding="utf-8"?>
<!-- Generator: Adobe Illustrator 16.0.0, SVG Export Plug-In . SVG Version: 6.00 Build 0)  -->
<!DOCTYPE svg PUBLIC "-//W3C//DTD SVG 1.1//EN" "http://www.w3.org/Graphics/SVG/1.1/DTD/svg11.dtd">
<svg version="1.1" id="Layer_1" xmlns="http://www.w3.org/2000/svg" xmlns:xlink="http://www.w3.org/1999/xlink" x="0px" y="0px"
	 width="890px" height="126.16px" viewBox="0 0 890 126.16" enable-background="new 0 0 890 126.16" xml:space="preserve">
<g>
	<g>
		<path fill="#5F371B" d="M6.882,96.931V85.605h8.385V41.224H6.882V29.899h32.383v11.325h-7.036v14.698h18.264V41.224h-6.795V29.899
			h32.143v11.325h-8.385v44.382h8.385v11.325H43.698V85.605h6.795V67.294H32.229v18.312h7.036v11.325H6.882z"/>
		<path fill="#5F371B" d="M120.946,28.839c11.565,0,20.665,3.342,27.299,10.023c6.633,6.683,9.951,14.827,9.951,24.432
			c0,9.638-3.325,17.79-9.976,24.456c-6.65,6.667-15.742,10-27.275,10c-11.983,0-21.188-3.429-27.613-10.289
			c-6.426-6.858-9.638-14.914-9.638-24.167c0-9.573,3.301-17.709,9.903-24.408C100.201,32.188,109.316,28.839,120.946,28.839z
			 M120.946,41.079c-5.141,0-9.502,1.928-13.083,5.783c-3.583,3.855-5.373,9.51-5.373,16.963c0,6.586,1.766,11.854,5.301,15.806
			c3.534,3.951,7.919,5.928,13.156,5.928c5.14,0,9.509-1.936,13.107-5.808c3.598-3.871,5.397-9.453,5.397-16.746
			c0-6.521-1.719-11.807-5.156-15.854C130.856,43.103,126.407,41.079,120.946,41.079z"/>
		<path fill="#5F371B" d="M165.858,96.931V85.605h9.59V41.224h-9.59V29.899h36.817v11.325h-9.782v44.382h19.806V64.885h13.06v32.046
			H165.858z"/>
		<path fill="#5F371B" d="M247.063,97.364l-19.131-56.141h-7.083V29.899h30.214v11.325h-6.939l10.891,32.19l10.216-32.19h-6.072
			V29.899h24.095v11.325h-6.217l10.987,32.19l10.554-32.19h-6.698V29.899h26.841v11.325h-7.276L292.94,97.364h-12.529l-10.554-30.6
			l-9.975,30.6H247.063z"/>
		<path fill="#5F371B" d="M353.389,28.839c11.565,0,20.665,3.342,27.299,10.023c6.633,6.683,9.951,14.827,9.951,24.432
			c0,9.638-3.325,17.79-9.976,24.456c-6.65,6.667-15.742,10-27.275,10c-11.983,0-21.188-3.429-27.613-10.289
			c-6.426-6.858-9.638-14.914-9.638-24.167c0-9.573,3.301-17.709,9.903-24.408C332.643,32.188,341.758,28.839,353.389,28.839z
			 M353.389,41.079c-5.141,0-9.502,1.928-13.083,5.783c-3.583,3.855-5.373,9.51-5.373,16.963c0,6.586,1.766,11.854,5.301,15.806
			c3.534,3.951,7.919,5.928,13.156,5.928c5.14,0,9.509-1.936,13.107-5.808c3.598-3.871,5.397-9.453,5.397-16.746
			c0-6.521-1.719-11.807-5.156-15.854C363.299,43.103,358.85,41.079,353.389,41.079z"/>
		<path fill="#5F371B" d="M437.672,28.839c11.564,0,20.664,3.342,27.299,10.023c6.635,6.683,9.951,14.827,9.951,24.432
			c0,9.638-3.324,17.79-9.975,24.456c-6.65,6.667-15.742,10-27.275,10c-11.983,0-21.188-3.429-27.613-10.289
			c-6.426-6.858-9.638-14.914-9.638-24.167c0-9.573,3.301-17.709,9.903-24.408C416.926,32.188,426.042,28.839,437.672,28.839z
			 M437.672,41.079c-5.141,0-9.502,1.928-13.083,5.783c-3.583,3.855-5.373,9.51-5.373,16.963c0,6.586,1.766,11.854,5.301,15.806
			c3.534,3.951,7.919,5.928,13.156,5.928c5.14,0,9.51-1.936,13.107-5.808c3.598-3.871,5.396-9.453,5.396-16.746
			c0-6.521-1.719-11.807-5.156-15.854S443.133,41.079,437.672,41.079z"/>
		<path fill="#5F371B" d="M482.15,96.931V85.605h10.168V41.224H482.15V29.899h31.758c6.682,0,12.062,0.41,16.143,1.229
			s7.982,2.635,11.711,5.445c3.725,2.812,6.713,6.578,8.963,11.301c2.248,4.722,3.373,9.959,3.373,15.709
			c0,4.659-0.787,9.101-2.361,13.325c-1.574,4.225-3.527,7.631-5.855,10.216c-2.33,2.587-5.115,4.644-8.361,6.169
			c-3.244,1.525-6.225,2.514-8.939,2.963c-2.715,0.45-6.914,0.675-12.602,0.675H482.15z M509.715,85.605h4.193
			c5.074,0,9.1-0.657,12.07-1.975s5.357-3.639,7.156-6.964s2.699-7.669,2.699-13.035c0-5.108-0.908-9.445-2.723-13.011
			c-1.816-3.566-4.273-6.023-7.373-7.373c-3.102-1.349-7.045-2.024-11.83-2.024h-4.193V85.605z"/>
		<path fill="#5F371B" d="M586.434,96.931V85.605h9.59V41.224h-9.59V29.899h59.996v20.673h-12.818v-9.349h-20.145v15.517h14.506
			v11.325h-14.506v17.54h10.312v11.325H586.434z"/>
		<path fill="#5F371B" d="M710.479,85.605v11.325h-32.961V85.605h8.576l-3.18-11.517h-17.396l-3.566,11.517h8.963v11.325H641.23
			V85.605h8.289l13.059-44.382h-8.914V29.899h43.756v11.325h-9.012l14.07,44.382H710.479z M680.168,64.258l-5.59-20.191
			l-6.025,20.191H680.168z"/>
		<path fill="#5F371B" d="M782.521,85.605v11.325h-20.42l-15.137-29.347h-7.67v18.022h8.385v11.325h-35.033V85.605h9.203V41.224
			h-9.203V29.899h40.432c7.613,0,13.098,1.92,16.455,5.759c3.357,3.839,5.037,8.185,5.037,13.035
			c0,7.614-3.873,13.172-11.615,16.674l10.893,20.239H782.521z M739.295,56.885h5.975c7.391,0,11.084-2.634,11.084-7.903
			c0-2.603-0.842-4.546-2.529-5.831c-1.688-1.285-4.008-1.928-6.963-1.928h-7.566V56.885z"/>
		<path fill="#5F371B" d="M785.027,96.931V85.605h8.674V41.224h-8.674V29.899h33.621l14.707,39.266l14.795-39.266h34.268v11.325
			h-8.674v44.382h8.674v11.325h-33.732V85.605h8.096V41.224h-1.59l-20.77,55.707h-7.229l-21.012-55.707h-1.59v44.382h8.771v11.325
			H785.027z"/>
	</g>
</g>
</svg>
