<?xml version="1.0" encoding="utf-8"?>
<!-- Generator: Adobe Illustrator 16.0.0, SVG Export Plug-In . SVG Version: 6.00 Build 0)  -->
<!DOCTYPE svg PUBLIC "-//W3C//DTD SVG 1.1//EN" "http://www.w3.org/Graphics/SVG/1.1/DTD/svg11.dtd">
<svg version="1.1" id="Layer_1" xmlns="http://www.w3.org/2000/svg" xmlns:xlink="http://www.w3.org/1999/xlink" x="0px" y="0px"
	 viewBox="0 0 470 124.073" enable-background="new 0 0 470 124.073" xml:space="preserve">
<g>
	<path fill="#FFFFFF" d="M118.603,26.067c0,3.648,0,6.651,0.19,8.246c0.114,1.103,0.342,1.937,1.482,2.089
		c0.532,0.078,1.368,0.152,1.71,0.152c0.228,0,0.304,0.115,0.304,0.23c0,0.189-0.19,0.304-0.608,0.304
		c-2.09,0-4.484-0.115-4.673-0.115c-0.19,0-2.584,0.115-3.724,0.115c-0.418,0-0.608-0.078-0.608-0.304
		c0-0.115,0.075-0.23,0.304-0.23c0.342,0,0.798-0.074,1.14-0.152c0.76-0.152,0.95-0.986,1.102-2.089
		c0.19-1.595,0.19-4.598,0.19-8.246V9.996l-5.623,0.076c-2.356,0.037-3.268,0.304-3.876,1.216c-0.418,0.645-0.532,0.912-0.646,1.179
		c-0.114,0.304-0.228,0.378-0.38,0.378c-0.114,0-0.189-0.113-0.189-0.341c0-0.38,0.76-3.647,0.835-3.951
		c0.076-0.229,0.228-0.723,0.38-0.723c0.266,0,0.646,0.382,1.672,0.456c1.102,0.115,2.545,0.191,3.001,0.191h14.249
		c2.432,0,3.458-0.38,3.762-0.38c0.19,0,0.19,0.228,0.19,0.457c0,1.14-0.114,3.762-0.114,4.179c0,0.343-0.114,0.495-0.266,0.495
		c-0.19,0-0.266-0.115-0.304-0.647l-0.038-0.417c-0.152-1.142-1.026-2.015-4.674-2.091l-4.788-0.076V26.067z"/>
	<path fill="#FFFFFF" d="M159.682,26.067c0,3.648,0,6.651,0.19,8.246c0.114,1.103,0.342,1.937,1.481,2.089
		c0.532,0.078,1.368,0.152,1.71,0.152c0.228,0,0.303,0.115,0.303,0.23c0,0.189-0.189,0.304-0.607,0.304
		c-2.09,0-4.484-0.115-4.673-0.115c-0.19,0-2.584,0.115-3.724,0.115c-0.418,0-0.608-0.078-0.608-0.304
		c0-0.115,0.076-0.23,0.304-0.23c0.342,0,0.798-0.074,1.14-0.152c0.76-0.152,0.95-0.986,1.102-2.089
		c0.19-1.595,0.19-4.598,0.19-8.246v-3.989c0-0.152-0.114-0.228-0.228-0.228h-16.111c-0.114,0-0.228,0.039-0.228,0.228v3.989
		c0,3.648,0,6.651,0.19,8.246c0.114,1.103,0.342,1.937,1.482,2.089c0.532,0.078,1.368,0.152,1.71,0.152
		c0.228,0,0.304,0.115,0.304,0.23c0,0.189-0.189,0.304-0.608,0.304c-2.089,0-4.483-0.115-4.673-0.115
		c-0.19,0-2.584,0.115-3.724,0.115c-0.418,0-0.608-0.078-0.608-0.304c0-0.115,0.076-0.23,0.304-0.23c0.342,0,0.798-0.074,1.14-0.152
		c0.76-0.152,0.95-0.986,1.103-2.089c0.19-1.595,0.19-4.598,0.19-8.246V19.38c0-5.927,0-6.991-0.076-8.207
		c-0.076-1.29-0.38-1.898-1.634-2.165c-0.304-0.076-0.95-0.115-1.292-0.115c-0.152,0-0.304-0.074-0.304-0.226
		c0-0.229,0.19-0.304,0.608-0.304c1.71,0,4.104,0.113,4.294,0.113c0.189,0,2.583-0.113,3.723-0.113c0.418,0,0.608,0.074,0.608,0.304
		c0,0.152-0.152,0.226-0.304,0.226c-0.266,0-0.494,0.039-0.95,0.115c-1.025,0.189-1.33,0.836-1.406,2.165
		c-0.076,1.216-0.076,2.28-0.076,8.207v0.799c0,0.19,0.114,0.228,0.228,0.228h16.111c0.114,0,0.228-0.038,0.228-0.228V19.38
		c0-5.927,0-6.991-0.076-8.207c-0.076-1.29-0.38-1.898-1.634-2.165c-0.304-0.076-0.95-0.115-1.292-0.115
		c-0.152,0-0.304-0.074-0.304-0.226c0-0.229,0.19-0.304,0.607-0.304c1.71,0,4.104,0.113,4.294,0.113
		c0.189,0,2.583-0.113,3.723-0.113c0.418,0,0.608,0.074,0.608,0.304c0,0.152-0.152,0.226-0.304,0.226
		c-0.266,0-0.494,0.039-0.95,0.115c-1.025,0.189-1.33,0.836-1.406,2.165c-0.076,1.216-0.076,2.28-0.076,8.207V26.067z"/>
	<path fill="#FFFFFF" d="M171.961,19.38c0-5.927,0-6.991-0.076-8.207c-0.076-1.29-0.379-1.898-1.633-2.165
		c-0.304-0.076-0.95-0.115-1.292-0.115c-0.151,0-0.304-0.074-0.304-0.226c0-0.229,0.19-0.304,0.608-0.304
		c1.71,0,4.104,0.113,4.293,0.113c0.267,0,7.828,0,8.702-0.039c0.722-0.037,1.33-0.113,1.634-0.189
		c0.19-0.037,0.342-0.189,0.532-0.189c0.114,0,0.152,0.152,0.152,0.341c0,0.267-0.19,0.723-0.304,1.787
		c-0.038,0.378-0.114,2.05-0.19,2.506c-0.038,0.191-0.114,0.419-0.266,0.419c-0.228,0-0.304-0.188-0.304-0.493
		c0-0.267-0.038-0.912-0.228-1.368c-0.266-0.608-0.646-1.064-2.698-1.293c-0.646-0.074-4.787-0.113-5.206-0.113
		c-0.151,0-0.228,0.113-0.228,0.38v10.487c0,0.267,0.038,0.38,0.228,0.38c0.495,0,5.167,0,6.042-0.076
		c0.912-0.076,1.444-0.152,1.786-0.532c0.266-0.304,0.418-0.495,0.57-0.495c0.114,0,0.19,0.078,0.19,0.304
		c0,0.229-0.19,0.875-0.304,2.128c-0.076,0.76-0.152,2.167-0.152,2.432c0,0.304,0,0.722-0.266,0.722
		c-0.19,0-0.266-0.151-0.266-0.341c0-0.381,0-0.76-0.152-1.254c-0.152-0.533-0.494-1.177-1.976-1.33
		c-1.026-0.114-4.787-0.19-5.434-0.19c-0.189,0-0.266,0.113-0.266,0.265v3.343c0,1.294-0.038,5.702,0,6.499
		c0.114,2.621,0.684,3.116,4.408,3.116c0.987,0,2.66,0,3.647-0.417c0.988-0.419,1.444-1.179,1.709-2.736
		c0.076-0.419,0.152-0.571,0.342-0.571c0.228,0,0.228,0.304,0.228,0.571c0,0.304-0.304,2.888-0.494,3.685
		c-0.266,0.988-0.57,0.988-2.052,0.988c-5.737,0-8.283-0.228-9.385-0.228c-0.19,0-2.583,0.115-3.724,0.115
		c-0.417,0-0.608-0.078-0.608-0.304c0-0.115,0.076-0.23,0.304-0.23c0.342,0,0.798-0.074,1.14-0.152
		c0.76-0.152,0.95-0.986,1.102-2.089c0.19-1.595,0.19-4.598,0.19-8.246V19.38z"/>
	<path fill="#FFFFFF" d="M205.062,36.593c-0.532-0.265-0.57-0.417-0.57-1.444c0-1.899,0.152-3.419,0.19-4.027
		c0.038-0.417,0.114-0.608,0.304-0.608c0.228,0,0.266,0.113,0.266,0.417c0,0.343,0,0.875,0.114,1.407
		c0.57,2.812,3.078,3.876,5.624,3.876c3.647,0,5.434-2.621,5.434-5.053c0-2.623-1.102-4.143-4.37-6.84l-1.71-1.407
		c-4.027-3.305-4.939-5.662-4.939-8.246c0-4.065,3.04-6.84,7.865-6.84c1.482,0,2.584,0.152,3.534,0.382
		c0.722,0.152,1.026,0.189,1.33,0.189c0.304,0,0.38,0.076,0.38,0.267c0,0.189-0.152,1.442-0.152,4.026
		c0,0.608-0.076,0.875-0.266,0.875c-0.228,0-0.266-0.189-0.304-0.493c-0.038-0.456-0.266-1.482-0.494-1.901
		c-0.228-0.417-1.254-2.013-4.75-2.013c-2.622,0-4.673,1.634-4.673,4.407c0,2.165,1.063,3.458,4.635,6.383l1.064,0.836
		c4.484,3.534,5.547,5.888,5.547,8.928c0,1.559-0.608,4.447-3.229,6.309c-1.634,1.138-3.686,1.594-5.737,1.594
		C208.368,37.619,206.62,37.354,205.062,36.593z"/>
	<path fill="#FFFFFF" d="M227.75,19.38c0-5.927,0-6.991-0.076-8.207c-0.076-1.29-0.38-1.898-1.634-2.165
		c-0.304-0.076-0.95-0.115-1.292-0.115c-0.152,0-0.304-0.074-0.304-0.226c0-0.229,0.19-0.304,0.607-0.304
		c1.71,0,4.104,0.113,4.294,0.113c0.266,0,7.828,0,8.701-0.039c0.722-0.037,1.33-0.113,1.633-0.189
		c0.191-0.037,0.344-0.189,0.534-0.189c0.113,0,0.152,0.152,0.152,0.341c0,0.267-0.191,0.723-0.305,1.787
		c-0.038,0.378-0.114,2.05-0.19,2.506c-0.039,0.191-0.113,0.419-0.266,0.419c-0.229,0-0.304-0.188-0.304-0.493
		c0-0.267-0.039-0.912-0.229-1.368c-0.265-0.608-0.646-1.064-2.697-1.293c-0.646-0.074-4.787-0.113-5.206-0.113
		c-0.152,0-0.228,0.113-0.228,0.38v10.487c0,0.267,0.038,0.38,0.228,0.38c0.494,0,5.167,0,6.042-0.076
		c0.912-0.076,1.444-0.152,1.787-0.532c0.265-0.304,0.417-0.495,0.568-0.495c0.113,0,0.191,0.078,0.191,0.304
		c0,0.229-0.191,0.875-0.305,2.128c-0.076,0.76-0.151,2.167-0.151,2.432c0,0.304,0,0.722-0.267,0.722
		c-0.188,0-0.267-0.151-0.267-0.341c0-0.381,0-0.76-0.152-1.254c-0.152-0.533-0.493-1.177-1.977-1.33
		c-1.024-0.114-4.786-0.19-5.432-0.19c-0.19,0-0.266,0.113-0.266,0.265v3.343c0,1.294-0.038,5.702,0,6.499
		c0.114,2.621,0.684,3.116,4.409,3.116c0.987,0,2.658,0,3.648-0.417c0.986-0.419,1.442-1.179,1.709-2.736
		c0.075-0.419,0.151-0.571,0.341-0.571c0.229,0,0.229,0.304,0.229,0.571c0,0.304-0.304,2.888-0.495,3.685
		c-0.264,0.988-0.568,0.988-2.051,0.988c-5.738,0-8.284-0.228-9.385-0.228c-0.19,0-2.584,0.115-3.724,0.115
		c-0.418,0-0.608-0.078-0.608-0.304c0-0.115,0.076-0.23,0.304-0.23c0.342,0,0.798-0.074,1.14-0.152
		c0.76-0.152,0.949-0.986,1.102-2.089c0.19-1.595,0.19-4.598,0.19-8.246V19.38z"/>
	<path fill="#FFFFFF" d="M260.013,32.451c2.203-5.089,7.296-18.351,8.131-21.087c0.191-0.569,0.344-1.103,0.344-1.444
		c0-0.304-0.115-0.684-0.496-0.875c-0.455-0.152-1.024-0.152-1.443-0.152c-0.228,0-0.418-0.037-0.418-0.226
		c0-0.229,0.229-0.304,0.837-0.304c1.521,0,3.267,0.113,3.723,0.113c0.229,0,1.862-0.113,2.965-0.113
		c0.417,0,0.646,0.074,0.646,0.265s-0.152,0.265-0.457,0.265c-0.266,0-1.101,0-1.822,0.457c-0.494,0.343-1.065,0.989-2.092,3.574
		c-0.417,1.063-2.316,5.623-4.256,10.296c-2.316,5.547-4.025,9.651-4.9,11.512c-1.063,2.28-1.216,2.888-1.596,2.888
		c-0.456,0-0.646-0.53-1.368-2.354l-9.31-23.293c-0.835-2.128-1.405-2.545-2.735-2.927c-0.569-0.152-1.216-0.152-1.442-0.152
		c-0.229,0-0.304-0.113-0.304-0.265c0-0.228,0.378-0.265,0.985-0.265c1.824,0,3.99,0.113,4.446,0.113
		c0.381,0,2.09-0.113,3.535-0.113c0.682,0,1.024,0.074,1.024,0.265s-0.112,0.265-0.38,0.265c-0.418,0-1.101,0.039-1.443,0.191
		c-0.418,0.191-0.495,0.495-0.495,0.76c0,0.495,0.456,1.672,1.027,3.153L260.013,32.451z"/>
	<path fill="#FFFFFF" d="M281.068,19.38c0-5.927,0-6.991-0.076-8.207c-0.076-1.29-0.38-1.898-1.633-2.165
		c-0.305-0.076-0.95-0.115-1.294-0.115c-0.152,0-0.304-0.074-0.304-0.226c0-0.229,0.19-0.304,0.608-0.304
		c1.711,0,4.104,0.113,4.294,0.113c0.266,0,7.827,0,8.702-0.039c0.721-0.037,1.329-0.113,1.633-0.189
		c0.191-0.037,0.343-0.189,0.532-0.189c0.114,0,0.151,0.152,0.151,0.341c0,0.267-0.188,0.723-0.303,1.787
		c-0.038,0.378-0.115,2.05-0.189,2.506c-0.039,0.191-0.115,0.419-0.267,0.419c-0.229,0-0.305-0.188-0.305-0.493
		c0-0.267-0.037-0.912-0.228-1.368c-0.266-0.608-0.646-1.064-2.697-1.293c-0.646-0.074-4.79-0.113-5.206-0.113
		c-0.152,0-0.229,0.113-0.229,0.38v10.487c0,0.267,0.037,0.38,0.229,0.38c0.494,0,5.167,0,6.041-0.076
		c0.911-0.076,1.444-0.152,1.786-0.532c0.267-0.304,0.419-0.495,0.571-0.495c0.112,0,0.188,0.078,0.188,0.304
		c0,0.229-0.188,0.875-0.304,2.128c-0.076,0.76-0.152,2.167-0.152,2.432c0,0.304,0,0.722-0.267,0.722
		c-0.189,0-0.266-0.151-0.266-0.341c0-0.381,0-0.76-0.151-1.254c-0.151-0.533-0.495-1.177-1.976-1.33
		c-1.026-0.114-4.788-0.19-5.434-0.19c-0.19,0-0.267,0.113-0.267,0.265v3.343c0,1.294-0.036,5.702,0,6.499
		c0.115,2.621,0.684,3.116,4.408,3.116c0.987,0,2.659,0,3.647-0.417c0.988-0.419,1.443-1.179,1.709-2.736
		c0.078-0.419,0.151-0.571,0.343-0.571c0.229,0,0.229,0.304,0.229,0.571c0,0.304-0.305,2.888-0.493,3.685
		c-0.268,0.988-0.571,0.988-2.054,0.988c-5.737,0-8.282-0.228-9.385-0.228c-0.19,0-2.583,0.115-3.724,0.115
		c-0.419,0-0.607-0.078-0.607-0.304c0-0.115,0.076-0.23,0.304-0.23c0.341,0,0.797-0.074,1.14-0.152
		c0.76-0.152,0.951-0.986,1.103-2.089c0.189-1.595,0.189-4.598,0.189-8.246V19.38z"/>
	<path fill="#FFFFFF" d="M304.593,31.921c0.074,3.114,0.456,4.104,1.48,4.408c0.722,0.188,1.559,0.226,1.9,0.226
		c0.188,0,0.304,0.078,0.304,0.23c0,0.226-0.228,0.304-0.685,0.304c-2.166,0-3.686-0.115-4.027-0.115
		c-0.341,0-1.938,0.115-3.646,0.115c-0.381,0-0.608-0.039-0.608-0.304c0-0.152,0.114-0.23,0.304-0.23
		c0.305,0,0.987-0.038,1.557-0.226c0.951-0.267,1.142-1.368,1.142-4.827l0.037-21.771c0-1.483,0.115-1.902,0.42-1.902
		c0.303,0,0.948,0.837,1.328,1.216c0.569,0.647,6.232,6.766,12.084,13.034c3.762,4.028,7.902,8.663,9.118,9.917l-0.418-19.303
		c-0.037-2.469-0.305-3.304-1.481-3.608c-0.685-0.152-1.559-0.191-1.863-0.191c-0.265,0-0.304-0.113-0.304-0.265
		c0-0.228,0.304-0.265,0.761-0.265c1.71,0,3.534,0.113,3.951,0.113c0.419,0,1.672-0.113,3.23-0.113c0.417,0,0.684,0.037,0.684,0.265
		c0,0.152-0.152,0.265-0.418,0.265c-0.189,0-0.456,0-0.913,0.115c-1.252,0.267-1.404,1.101-1.404,3.381l-0.076,22.268
		c0,2.506-0.076,2.697-0.343,2.697c-0.304,0-0.76-0.417-2.773-2.432c-0.418-0.38-5.891-5.967-9.916-10.296
		c-4.407-4.75-8.702-9.538-9.918-10.906L304.593,31.921z"/>
	<path fill="#FFFFFF" d="M349.475,36.593c-0.532-0.265-0.569-0.417-0.569-1.444c0-1.899,0.152-3.419,0.189-4.027
		c0.037-0.417,0.115-0.608,0.305-0.608c0.228,0,0.267,0.113,0.267,0.417c0,0.343,0,0.875,0.113,1.407
		c0.568,2.812,3.078,3.876,5.623,3.876c3.647,0,5.433-2.621,5.433-5.053c0-2.623-1.101-4.143-4.369-6.84l-1.711-1.407
		c-4.025-3.305-4.938-5.662-4.938-8.246c0-4.065,3.04-6.84,7.864-6.84c1.481,0,2.584,0.152,3.535,0.382
		c0.721,0.152,1.024,0.189,1.329,0.189c0.304,0,0.38,0.076,0.38,0.267c0,0.189-0.151,1.442-0.151,4.026
		c0,0.608-0.076,0.875-0.268,0.875c-0.227,0-0.266-0.189-0.304-0.493c-0.037-0.456-0.266-1.482-0.494-1.901
		c-0.227-0.417-1.252-2.013-4.747-2.013c-2.623,0-4.675,1.634-4.675,4.407c0,2.165,1.063,3.458,4.636,6.383l1.063,0.836
		c4.483,3.534,5.547,5.888,5.547,8.928c0,1.559-0.607,4.447-3.229,6.309c-1.634,1.138-3.687,1.594-5.738,1.594
		C352.78,37.619,351.034,37.354,349.475,36.593z"/>
</g>
<g>
	<path fill="#FFFFFF" d="M381.36,26.067c0,3.648,0,6.651,0.19,8.246c0.113,1.103,0.344,1.937,1.481,2.089
		c0.534,0.078,1.367,0.152,1.711,0.152c0.228,0,0.304,0.115,0.304,0.23c0,0.189-0.19,0.304-0.608,0.304
		c-2.088,0-4.483-0.115-4.673-0.115c-0.19,0-2.583,0.115-3.725,0.115c-0.418,0-0.608-0.078-0.608-0.304
		c0-0.115,0.078-0.23,0.304-0.23c0.344,0,0.8-0.074,1.142-0.152c0.761-0.152,0.95-0.986,1.102-2.089
		c0.189-1.595,0.189-4.598,0.189-8.246V9.996l-5.624,0.076c-2.354,0.037-3.267,0.304-3.874,1.216
		c-0.419,0.645-0.534,0.912-0.646,1.179c-0.113,0.304-0.228,0.378-0.38,0.378c-0.115,0-0.188-0.113-0.188-0.341
		c0-0.38,0.759-3.647,0.833-3.951c0.078-0.229,0.23-0.723,0.382-0.723c0.266,0,0.645,0.382,1.673,0.456
		c1.101,0.115,2.544,0.191,3,0.191h14.248c2.432,0,3.459-0.38,3.762-0.38c0.189,0,0.189,0.228,0.189,0.457
		c0,1.14-0.113,3.762-0.113,4.179c0,0.343-0.113,0.495-0.265,0.495c-0.19,0-0.267-0.115-0.304-0.647l-0.039-0.417
		c-0.151-1.142-1.025-2.015-4.673-2.091l-4.789-0.076V26.067z"/>
</g>
<g>
	<path fill="#FFFFFF" d="M403.896,9.312c0.456-1.253,0.608-1.483,0.838-1.483c0.227,0,0.379,0.19,0.834,1.368
		c0.571,1.446,6.536,17.137,8.854,22.913c1.367,3.381,2.471,3.989,3.268,4.219c0.57,0.188,1.14,0.226,1.521,0.226
		c0.228,0,0.38,0.039,0.38,0.23c0,0.226-0.343,0.304-0.761,0.304c-0.569,0-3.344,0-5.967-0.078c-0.72-0.037-1.138-0.037-1.138-0.265
		c0-0.152,0.113-0.229,0.266-0.265c0.229-0.078,0.456-0.419,0.229-1.027l-3.533-9.347c-0.078-0.152-0.152-0.228-0.344-0.228h-8.168
		c-0.19,0-0.304,0.115-0.382,0.304l-2.279,6.725c-0.342,0.951-0.53,1.862-0.53,2.546c0,0.76,0.797,1.101,1.441,1.101h0.383
		c0.265,0,0.378,0.078,0.378,0.23c0,0.226-0.227,0.304-0.569,0.304c-0.911,0-2.545-0.115-2.964-0.115s-2.508,0.115-4.293,0.115
		c-0.495,0-0.723-0.078-0.723-0.304c0-0.152,0.151-0.23,0.341-0.23c0.268,0,0.8-0.038,1.103-0.074
		c1.748-0.23,2.509-1.672,3.192-3.573L403.896,9.312z M407.849,24.511c0.191,0,0.191-0.115,0.152-0.267l-3.609-10.257
		c-0.191-0.571-0.38-0.571-0.569,0l-3.343,10.257c-0.078,0.191,0,0.267,0.113,0.267H407.849z"/>
	<path fill="#FFFFFF" d="M425.942,19.38c0-5.927,0-6.991-0.078-8.207c-0.074-1.29-0.378-1.898-1.633-2.165
		c-0.305-0.076-0.95-0.115-1.292-0.115c-0.152,0-0.304-0.074-0.304-0.226c0-0.229,0.188-0.304,0.608-0.304
		c1.709,0,4.104,0.113,4.292,0.113c0.419,0,3.307-0.113,4.485-0.113c2.393,0,4.938,0.226,6.953,1.672
		c0.95,0.682,2.622,2.544,2.622,5.167c0,2.81-1.179,5.624-4.599,8.777c3.116,3.99,5.699,7.371,7.903,9.727
		c2.052,2.167,3.687,2.584,4.636,2.736c0.723,0.113,1.253,0.113,1.482,0.113c0.189,0,0.341,0.115,0.341,0.23
		c0,0.226-0.228,0.304-0.911,0.304h-2.698c-2.129,0-3.077-0.191-4.064-0.723c-1.634-0.875-2.964-2.736-5.13-5.587
		c-1.598-2.089-3.383-4.634-4.143-5.623c-0.151-0.152-0.265-0.227-0.495-0.227l-4.673-0.077c-0.189,0-0.264,0.114-0.264,0.304v0.912
		c0,3.648,0,6.651,0.188,8.246c0.115,1.103,0.342,1.937,1.483,2.089c0.53,0.078,1.368,0.152,1.709,0.152
		c0.229,0,0.304,0.115,0.304,0.23c0,0.189-0.188,0.304-0.607,0.304c-2.091,0-4.483-0.115-4.674-0.115
		c-0.037,0-2.432,0.115-3.57,0.115c-0.42,0-0.608-0.078-0.608-0.304c0-0.115,0.075-0.23,0.304-0.23c0.342,0,0.798-0.074,1.139-0.152
		c0.76-0.152,0.951-0.986,1.103-2.089c0.191-1.595,0.191-4.598,0.191-8.246V19.38z M428.982,22.687c0,0.189,0.074,0.341,0.264,0.456
		c0.569,0.341,2.319,0.608,3.991,0.608c0.912,0,1.976-0.115,2.85-0.723c1.328-0.912,2.318-2.962,2.318-5.85
		c0-4.751-2.51-7.6-6.574-7.6c-1.141,0-2.167,0.113-2.546,0.226c-0.189,0.078-0.303,0.23-0.303,0.457V22.687z"/>
</g>
<g>
	<path fill="#FFFFFF" d="M454.369,36.593c-0.532-0.265-0.571-0.417-0.571-1.444c0-1.899,0.152-3.419,0.191-4.027
		c0.039-0.417,0.113-0.608,0.304-0.608c0.228,0,0.266,0.113,0.266,0.417c0,0.343,0,0.875,0.114,1.407
		c0.571,2.812,3.076,3.876,5.624,3.876c3.647,0,5.435-2.621,5.435-5.053c0-2.623-1.103-4.143-4.371-6.84l-1.709-1.407
		c-4.029-3.305-4.941-5.662-4.941-8.246c0-4.065,3.039-6.84,7.866-6.84c1.482,0,2.584,0.152,3.533,0.382
		c0.723,0.152,1.026,0.189,1.331,0.189c0.303,0,0.379,0.076,0.379,0.267c0,0.189-0.151,1.442-0.151,4.026
		c0,0.608-0.076,0.875-0.265,0.875c-0.23,0-0.268-0.189-0.305-0.493c-0.039-0.456-0.267-1.482-0.495-1.901
		c-0.228-0.417-1.255-2.013-4.75-2.013c-2.621,0-4.673,1.634-4.673,4.407c0,2.165,1.063,3.458,4.636,6.383l1.064,0.836
		c4.483,3.534,5.547,5.888,5.547,8.928c0,1.559-0.608,4.447-3.23,6.309c-1.634,1.138-3.685,1.594-5.737,1.594
		C457.675,37.619,455.926,37.354,454.369,36.593z"/>
</g>
<g>
	<path fill="#FFFFFF" d="M89.983,8.209C89.983,2.888,84.815,0,80.103,0c-3.92,0-9.218,2.522-14.057,7.38H18.242
		c-9.881,0-13.529-1.52-14.441-1.52c-0.913,0-1.521,0.608-1.521,2.128C2.28,9.508,0,27.294,0,32.157
		c0,1.674,0.152,2.434,0.912,2.434c0.76,0,1.216-0.76,1.368-2.13c0.456-4.255,2.584-9.119,5.776-11.705
		c3.649-3.04,9.73-3.799,14.138-3.799h37.396c-22.954,39.828-39.371,80.415-45.3,100.329c-0.456,1.37-0.912,3.649-0.912,5.17
		c0,1.063,0.456,1.52,1.368,1.52c3.041,0,14.897-6.233,14.897-9.272c0-1.672-0.304-2.736,0-5.32
		c2.281-19.764,27.363-79.353,39.676-97.595c0.061-0.093,0.093-0.18,0.143-0.272c1.756-2.092,3.73-3.61,5.168-3.61
		c2.585,0,0.456,7.601,8.969,7.601C87.096,15.506,89.983,12.465,89.983,8.209"/>
</g>
</svg>
